<svg xmlns="http://www.w3.org/2000/svg" xmlns:xlink="http://www.w3.org/1999/xlink" class="main-svg" width="794" height="469"><rect x="0" y="0" width="794" height="469" style="fill: rgb(255, 255, 255); fill-opacity: 1;"/><defs id="defs-8e89ab"><g class="clips"><clipPath class="axesclip" id="clip8e89abx"><rect x="80" y="0" width="634" height="469"/></clipPath><clipPath class="axesclip" id="clip8e89aby"><rect x="0" y="100" width="794" height="289"/></clipPath><clipPath class="axesclip" id="clip8e89abxy"><rect x="80" y="100" width="634" height="289"/></clipPath></g></defs><g class="draglayer"><g transform="translate(80,100)"/></g><g class="subplot xy"><rect x="80" y="100" width="634" height="289" style="stroke-width: 0px; fill: rgb(255, 255, 255); fill-opacity: 1;"/><g transform="translate(80,100)"><path class="xgrid crisp" d="M0,0v289" transform="translate(162.23,0)" style="stroke: rgb(238, 238, 238); stroke-opacity: 1; stroke-width: 1px;"/><path class="xgrid crisp" d="M0,0v289" transform="translate(320.54,0)" style="stroke: rgb(238, 238, 238); stroke-opacity: 1; stroke-width: 1px;"/><path class="xgrid crisp" d="M0,0v289" transform="translate(478.85,0)" style="stroke: rgb(238, 238, 238); stroke-opacity: 1; stroke-width: 1px;"/><path class="ygrid crisp" d="M0,0h634" transform="translate(0,259.33)" style="stroke: rgb(238, 238, 238); stroke-opacity: 1; stroke-width: 1px;"/><path class="ygrid crisp" d="M0,0h634" transform="translate(0,219.96)" style="stroke: rgb(238, 238, 238); stroke-opacity: 1; stroke-width: 1px;"/><path class="ygrid crisp" d="M0,0h634" transform="translate(0,180.6)" style="stroke: rgb(238, 238, 238); stroke-opacity: 1; stroke-width: 1px;"/><path class="ygrid crisp" d="M0,0h634" transform="translate(0,141.23)" style="stroke: rgb(238, 238, 238); stroke-opacity: 1; stroke-width: 1px;"/><path class="ygrid crisp" d="M0,0h634" transform="translate(0,101.87)" style="stroke: rgb(238, 238, 238); stroke-opacity: 1; stroke-width: 1px;"/><path class="ygrid crisp" d="M0,0h634" transform="translate(0,62.5)" style="stroke: rgb(238, 238, 238); stroke-opacity: 1; stroke-width: 1px;"/><path class="ygrid crisp" d="M0,0h634" transform="translate(0,23.13)" style="stroke: rgb(238, 238, 238); stroke-opacity: 1; stroke-width: 1px;"/></g><g/><g transform="translate(80,100)"><path class="xzl zl crisp" d="M0,0v289" transform="translate(3.91,0)" style="stroke: rgb(68, 68, 68); stroke-opacity: 1; stroke-width: 1px;"/></g><g/><svg preserveAspectRatio="none" x="80" y="100" width="634" height="289" viewBox="0 0 634 289" style="fill: none;"><g class="maplayer"/><g class="barlayer"/><g class="errorlayer"><g class="errorbars"/></g><g class="boxlayer"/><g class="scatterlayer"><g class="trace scatter" style="stroke-miterlimit: 2; opacity: 1;"><path class="js-line" d="M3.91,14.45L7.08,139.25L10.25,147.98L13.41,162.04L16.58,170.26L22.91,170.26L26.08,198.4L29.24,222.96L32.41,226.52L35.58,228.11L38.74,233.7L41.91,234.84L45.08,239.88L73.57,239.88L76.74,243.74L79.9,250.65L83.07,253L136.9,253L140.06,258.42L459.86,258.42L463.02,274.55L634,274.55" style="fill: none; stroke: rgb(31, 119, 180); stroke-opacity: 1; stroke-width: 2px;"/></g></g></svg><g/><path class="crisp" transform="translate(80,100)" d="M-1,289.5h636" style="fill: none; stroke-width: 1px; stroke: rgb(0, 0, 0); stroke-opacity: 0;"/><path class="crisp" transform="translate(80,100)" d="M-0.5,-1v290" stroke-width="1px" style="fill: none; stroke: rgb(0, 0, 0); stroke-opacity: 0;"/><g/><g transform="translate(80,100)"><g class="xtick" data-bb="7776"><text text-anchor="middle" x="0" y="303" transform="translate(3.91,0)" style="font-family: 'Open sans', verdana, arial, sans-serif; font-size: 12px; fill: rgb(68, 68, 68); fill-opacity: 1; visibility: visible; white-space: pre;" data-bb="7771">0</text></g><g class="xtick" data-bb="7777"><text text-anchor="middle" x="0" y="303" transform="translate(162.23,0)" style="font-family: 'Open sans', verdana, arial, sans-serif; font-size: 12px; fill: rgb(68, 68, 68); fill-opacity: 1; visibility: visible; white-space: pre;" data-bb="7772">5k</text></g><g class="xtick" data-bb="7778"><text text-anchor="middle" x="0" y="303" transform="translate(320.54,0)" style="font-family: 'Open sans', verdana, arial, sans-serif; font-size: 12px; fill: rgb(68, 68, 68); fill-opacity: 1; visibility: visible; white-space: pre;" data-bb="7773">10k</text></g><g class="xtick" data-bb="7779"><text text-anchor="middle" x="0" y="303" transform="translate(478.85,0)" style="font-family: 'Open sans', verdana, arial, sans-serif; font-size: 12px; fill: rgb(68, 68, 68); fill-opacity: 1; visibility: visible; white-space: pre;" data-bb="7774">15k</text></g></g><g transform="translate(80,100)"><g class="ytick" data-bb="7781"><text text-anchor="end" x="-2" y="6" transform="translate(0,259.33)" style="font-family: 'Open sans', verdana, arial, sans-serif; font-size: 12px; fill: rgb(68, 68, 68); fill-opacity: 1; visibility: visible; white-space: pre;">400</text></g><g class="ytick" data-bb="7782"><text text-anchor="end" x="-2" y="6" transform="translate(0,219.96)" style="font-family: 'Open sans', verdana, arial, sans-serif; font-size: 12px; fill: rgb(68, 68, 68); fill-opacity: 1; visibility: visible; white-space: pre;">500</text></g><g class="ytick" data-bb="7783"><text text-anchor="end" x="-2" y="6" transform="translate(0,180.6)" style="font-family: 'Open sans', verdana, arial, sans-serif; font-size: 12px; fill: rgb(68, 68, 68); fill-opacity: 1; visibility: visible; white-space: pre;">600</text></g><g class="ytick" data-bb="7784"><text text-anchor="end" x="-2" y="6" transform="translate(0,141.23)" style="font-family: 'Open sans', verdana, arial, sans-serif; font-size: 12px; fill: rgb(68, 68, 68); fill-opacity: 1; visibility: visible; white-space: pre;">700</text></g><g class="ytick" data-bb="7785"><text text-anchor="end" x="-2" y="6" transform="translate(0,101.87)" style="font-family: 'Open sans', verdana, arial, sans-serif; font-size: 12px; fill: rgb(68, 68, 68); fill-opacity: 1; visibility: visible; white-space: pre;">800</text></g><g class="ytick" data-bb="7786"><text text-anchor="end" x="-2" y="6" transform="translate(0,62.5)" style="font-family: 'Open sans', verdana, arial, sans-serif; font-size: 12px; fill: rgb(68, 68, 68); fill-opacity: 1; visibility: visible; white-space: pre;">900</text></g><g class="ytick" data-bb="7787"><text text-anchor="end" x="-2" y="6" transform="translate(0,23.13)" style="font-family: 'Open sans', verdana, arial, sans-serif; font-size: 12px; fill: rgb(68, 68, 68); fill-opacity: 1; visibility: visible; white-space: pre;">1000</text></g></g><g/></g><g class="shapelayer"/><g class="glimages"/><text class="js-plot-link-container" y="460" text-anchor="end" x="787" style="font-family: 'Open Sans', Arial, sans-serif; font-size: 12px; fill: rgb(68, 68, 68); pointer-events: all;"><tspan class="js-link-to-tool"/><tspan class="js-link-spacer"/><tspan class="js-sourcelinks"/></text><g class="infolayer"><g class="g-gtitle"/><g class="g-xtitle" data-bb="7775"><text class="xtitle" x="397" y="441" text-anchor="middle" style="font-family: 'Open sans', verdana, arial, sans-serif; font-size: 14px; fill: rgb(68, 68, 68); opacity: 1; white-space: pre; visibility: visible;">Количество итераций</text></g><g class="g-ytitle" data-bb="7780"><text class="ytitle" transform="rotate(-90,42,244.5) translate(0, 0)" x="42" y="244.5" text-anchor="middle" style="font-family: 'Open sans', verdana, arial, sans-serif; font-size: 14px; fill: rgb(68, 68, 68); opacity: 1; white-space: pre; visibility: visible;">Время выполнения плана</text></g><g class="annotation" data-index="0" style="opacity: 1;"><g class="annotation-text-g" data-index="0" transform="rotate(0,140.5,312.5)" x="140.5" y="312.5"><svg x="80" y="302" width="121" height="21"><rect class="bg" x="0.5" y="0.5" width="120" height="20" style="stroke-width: 1px; stroke: rgb(0, 0, 0); stroke-opacity: 0; fill: rgb(0, 0, 0); fill-opacity: 0;"/><text class="annotation" text-anchor="middle" style="font-family: 'Open sans', verdana, arial, sans-serif; font-size: 12px; fill: rgb(68, 68, 68); fill-opacity: 1; visibility: visible; white-space: pre;" data-bb="7789" x="60.703125" y="15">     Жадное решение</text></svg></g><g class="annotation-arrow-g" data-index="0" style="opacity: 1;"><path d="M143.83333333333334,322.5L150.5,342.5" style="stroke-width: 2px; stroke: rgb(68, 68, 68); stroke-opacity: 1; stroke-dasharray: 19.8818519592285px, 21.0818519592285px;"/><path d="M-2.4,-3V3L0.6,0Z" transform="translate(150.1205291748047,341.361572265625)rotate(71.57058005668189)scale(2)" style="fill: rgb(68, 68, 68); opacity: 1; stroke-width: 0px;"/><path class="annotation anndrag" data-index="0" d="M3,3H-3V-3H3ZM0,0L-6.666666666666657,-20" transform="translate(150.5,342.5)" style="stroke-width: 8px; stroke: rgb(0, 0, 0); stroke-opacity: 0; fill: rgb(0, 0, 0); fill-opacity: 0;"/></g></g></g></svg>