<svg xmlns="http://www.w3.org/2000/svg" xmlns:xlink="http://www.w3.org/1999/xlink" class="main-svg" width="794" height="469"><rect x="0" y="0" width="794" height="469" style="fill: rgb(255, 255, 255); fill-opacity: 1;"/><defs id="defs-e89680"><g class="clips"><clipPath class="axesclip" id="clipe89680x"><rect x="80" y="0" width="634" height="469"/></clipPath><clipPath class="axesclip" id="clipe89680y"><rect x="0" y="100" width="794" height="289"/></clipPath><clipPath class="axesclip" id="clipe89680xy"><rect x="80" y="100" width="634" height="289"/></clipPath></g></defs><g class="draglayer"><g transform="translate(80,100)"/></g><g class="subplot xy"><rect x="80" y="100" width="634" height="289" style="stroke-width: 0px; fill: rgb(255, 255, 255); fill-opacity: 1;"/><g transform="translate(80,100)"><path class="xgrid crisp" d="M0,0v289" transform="translate(105.67,0)" style="stroke: rgb(238, 238, 238); stroke-opacity: 1; stroke-width: 1px;"/><path class="xgrid crisp" d="M0,0v289" transform="translate(211.33,0)" style="stroke: rgb(238, 238, 238); stroke-opacity: 1; stroke-width: 1px;"/><path class="xgrid crisp" d="M0,0v289" transform="translate(317,0)" style="stroke: rgb(238, 238, 238); stroke-opacity: 1; stroke-width: 1px;"/><path class="xgrid crisp" d="M0,0v289" transform="translate(422.67,0)" style="stroke: rgb(238, 238, 238); stroke-opacity: 1; stroke-width: 1px;"/><path class="xgrid crisp" d="M0,0v289" transform="translate(528.33,0)" style="stroke: rgb(238, 238, 238); stroke-opacity: 1; stroke-width: 1px;"/><path class="ygrid crisp" d="M0,0h634" transform="translate(0,252.54)" style="stroke: rgb(238, 238, 238); stroke-opacity: 1; stroke-width: 1px;"/><path class="ygrid crisp" d="M0,0h634" transform="translate(0,198.25)" style="stroke: rgb(238, 238, 238); stroke-opacity: 1; stroke-width: 1px;"/><path class="ygrid crisp" d="M0,0h634" transform="translate(0,143.97)" style="stroke: rgb(238, 238, 238); stroke-opacity: 1; stroke-width: 1px;"/><path class="ygrid crisp" d="M0,0h634" transform="translate(0,89.68)" style="stroke: rgb(238, 238, 238); stroke-opacity: 1; stroke-width: 1px;"/><path class="ygrid crisp" d="M0,0h634" transform="translate(0,35.39)" style="stroke: rgb(238, 238, 238); stroke-opacity: 1; stroke-width: 1px;"/></g><g/><g transform="translate(80,100)"><path class="xzl zl crisp" d="M0,0v289" transform="translate(0,0)" style="stroke: rgb(68, 68, 68); stroke-opacity: 1; stroke-width: 1px;"/></g><g/><svg preserveAspectRatio="none" x="80" y="100" width="634" height="289" viewBox="0 0 634 289" style="fill: none;"><g class="maplayer"/><g class="barlayer"/><g class="errorlayer"><g class="errorbars"/></g><g class="boxlayer"/><g class="scatterlayer"><g class="trace scatter" style="stroke-miterlimit: 2; opacity: 1;"><path class="js-line" d="M0,14.45L5.28,100.98L10.57,131.06L15.85,131.06L21.13,133.26L26.42,133.26L31.7,135.5L36.98,149.55L42.27,149.55L52.83,149.55L58.12,155.81L63.4,158.13L68.68,173.32L73.97,177.01L79.25,190.46L84.53,195.57L89.82,195.57L100.38,195.84L105.67,231.92L110.95,231.92L116.23,234.31L121.52,234.31L126.8,246.06L132.08,263.37L137.37,264.17L295.87,264.17L301.15,274.55L634,274.55" style="fill: none; stroke: rgb(31, 119, 180); stroke-opacity: 1; stroke-width: 2px;"/></g></g></svg><g/><path class="crisp" transform="translate(80,100)" d="M-1,289.5h636" style="fill: none; stroke-width: 1px; stroke: rgb(0, 0, 0); stroke-opacity: 0;"/><path class="crisp" transform="translate(80,100)" d="M-0.5,-1v290" stroke-width="1px" style="fill: none; stroke: rgb(0, 0, 0); stroke-opacity: 0;"/><g/><g transform="translate(80,100)"><g class="xtick" data-bb="962"><text text-anchor="middle" x="0" y="303" transform="translate(0,0)" style="font-family: 'Open sans', verdana, arial, sans-serif; font-size: 12px; fill: rgb(68, 68, 68); fill-opacity: 1; visibility: visible; white-space: pre;" data-bb="954">0</text></g><g class="xtick" data-bb="963"><text text-anchor="middle" x="0" y="303" transform="translate(105.67,0)" style="font-family: 'Open sans', verdana, arial, sans-serif; font-size: 12px; fill: rgb(68, 68, 68); fill-opacity: 1; visibility: visible; white-space: pre;" data-bb="955">2k</text></g><g class="xtick" data-bb="964"><text text-anchor="middle" x="0" y="303" transform="translate(211.33,0)" style="font-family: 'Open sans', verdana, arial, sans-serif; font-size: 12px; fill: rgb(68, 68, 68); fill-opacity: 1; visibility: visible; white-space: pre;" data-bb="956">4k</text></g><g class="xtick" data-bb="965"><text text-anchor="middle" x="0" y="303" transform="translate(317,0)" style="font-family: 'Open sans', verdana, arial, sans-serif; font-size: 12px; fill: rgb(68, 68, 68); fill-opacity: 1; visibility: visible; white-space: pre;" data-bb="957">6k</text></g><g class="xtick" data-bb="966"><text text-anchor="middle" x="0" y="303" transform="translate(422.67,0)" style="font-family: 'Open sans', verdana, arial, sans-serif; font-size: 12px; fill: rgb(68, 68, 68); fill-opacity: 1; visibility: visible; white-space: pre;" data-bb="958">8k</text></g><g class="xtick" data-bb="967"><text text-anchor="middle" x="0" y="303" transform="translate(528.33,0)" style="font-family: 'Open sans', verdana, arial, sans-serif; font-size: 12px; fill: rgb(68, 68, 68); fill-opacity: 1; visibility: visible; white-space: pre;" data-bb="959">10k</text></g><g class="xtick" data-bb="968"><text text-anchor="middle" x="0" y="303" transform="translate(634,0)" style="font-family: 'Open sans', verdana, arial, sans-serif; font-size: 12px; fill: rgb(68, 68, 68); fill-opacity: 1; visibility: visible; white-space: pre;" data-bb="960">12k</text></g></g><g transform="translate(80,100)"><g class="ytick" data-bb="970"><text text-anchor="end" x="-2" y="6" transform="translate(0,252.54)" style="font-family: 'Open sans', verdana, arial, sans-serif; font-size: 12px; fill: rgb(68, 68, 68); fill-opacity: 1; visibility: visible; white-space: pre;">600</text></g><g class="ytick" data-bb="971"><text text-anchor="end" x="-2" y="6" transform="translate(0,198.25)" style="font-family: 'Open sans', verdana, arial, sans-serif; font-size: 12px; fill: rgb(68, 68, 68); fill-opacity: 1; visibility: visible; white-space: pre;">800</text></g><g class="ytick" data-bb="972"><text text-anchor="end" x="-2" y="6" transform="translate(0,143.97)" style="font-family: 'Open sans', verdana, arial, sans-serif; font-size: 12px; fill: rgb(68, 68, 68); fill-opacity: 1; visibility: visible; white-space: pre;">1000</text></g><g class="ytick" data-bb="973"><text text-anchor="end" x="-2" y="6" transform="translate(0,89.68)" style="font-family: 'Open sans', verdana, arial, sans-serif; font-size: 12px; fill: rgb(68, 68, 68); fill-opacity: 1; visibility: visible; white-space: pre;">1200</text></g><g class="ytick" data-bb="974"><text text-anchor="end" x="-2" y="6" transform="translate(0,35.39)" style="font-family: 'Open sans', verdana, arial, sans-serif; font-size: 12px; fill: rgb(68, 68, 68); fill-opacity: 1; visibility: visible; white-space: pre;">1400</text></g></g><g/></g><g class="shapelayer"/><g class="glimages"/><text class="js-plot-link-container" y="460" text-anchor="end" x="787" style="font-family: 'Open Sans', Arial, sans-serif; font-size: 12px; fill: rgb(68, 68, 68); pointer-events: all;"><tspan class="js-link-to-tool"/><tspan class="js-link-spacer"/><tspan class="js-sourcelinks"/></text><g class="infolayer"><g class="g-gtitle"/><g class="g-xtitle" data-bb="961"><text class="xtitle" x="397" y="441" text-anchor="middle" style="font-family: 'Open sans', verdana, arial, sans-serif; font-size: 14px; fill: rgb(68, 68, 68); opacity: 1; white-space: pre; visibility: visible;">Количество итераций</text></g><g class="g-ytitle" data-bb="969"><text class="ytitle" transform="rotate(-90,42,244.5) translate(0, 0)" x="42" y="244.5" text-anchor="middle" style="font-family: 'Open sans', verdana, arial, sans-serif; font-size: 14px; fill: rgb(68, 68, 68); opacity: 1; white-space: pre; visibility: visible;">Время выполнения плана</text></g><g class="annotation" data-index="0" style="opacity: 1;"><g class="annotation-text-g" data-index="0" transform="rotate(0,249,313.5)" x="249" y="313.5"><svg x="196" y="303" width="106" height="21"><rect class="bg" x="0.5" y="0.5" width="105" height="20" style="stroke-width: 1px; stroke: rgb(0, 0, 0); stroke-opacity: 0; fill: rgb(0, 0, 0); fill-opacity: 0;"/><text class="annotation" text-anchor="middle" style="font-family: 'Open sans', verdana, arial, sans-serif; font-size: 12px; fill: rgb(68, 68, 68); fill-opacity: 1; visibility: visible; white-space: pre;" data-bb="976" x="52.90625" y="15">Жадное решение</text></svg></g><g class="annotation-arrow-g" data-index="0" style="opacity: 1;"><path d="M240.70212765957447,323.5L210,360.5" style="stroke-width: 2px; stroke: rgb(68, 68, 68); stroke-opacity: 1; stroke-dasharray: 46.8793190002441px, 48.0793190002441px;"/><path d="M-2.4,-3V3L0.6,0Z" transform="translate(210.7662811279297,359.5765380859375)rotate(129.68244842830904)scale(2)" style="fill: rgb(68, 68, 68); opacity: 1; stroke-width: 0px;"/><path class="annotation anndrag" data-index="0" d="M3,3H-3V-3H3ZM0,0L30.702127659574472,-37" transform="translate(210,360.5)" style="stroke-width: 8px; stroke: rgb(0, 0, 0); stroke-opacity: 0; fill: rgb(0, 0, 0); fill-opacity: 0;"/></g></g></g></svg>